<svg id="Icons" height="512" viewBox="0 0 74 74" width="512" xmlns="http://www.w3.org/2000/svg"><path d="m37 52.021a25.011 25.011 0 1 1 25.011-25.01 25.039 25.039 0 0 1 -25.011 25.01zm0-48.021a23.011 23.011 0 1 0 23.011 23.011 23.037 23.037 0 0 0 -23.011-23.011z"/><path d="m37 45.882a18.872 18.872 0 1 1 18.871-18.871 18.892 18.892 0 0 1 -18.871 18.871zm0-35.743a16.872 16.872 0 1 0 16.871 16.872 16.891 16.891 0 0 0 -16.871-16.872z"/><path d="m41.951 36.1a3.958 3.958 0 1 1 2.649-1.007 3.951 3.951 0 0 1 -2.649 1.007zm0-5.924a1.963 1.963 0 1 0 1.464.653 1.944 1.944 0 0 0 -1.353-.649c-.041.001-.079 0-.115 0z"/><path d="m32.055 25.841c-.074 0-.147 0-.22-.006a3.963 3.963 0 1 1 3.165-6.602 3.964 3.964 0 0 1 -2.947 6.608zm-.005-5.924a1.961 1.961 0 1 0 1.463.651 1.96 1.96 0 0 0 -1.463-.651z"/><path d="m29.433 35.383a1 1 0 0 1 -.7-1.716l15.136-14.745a1 1 0 0 1 1.4 1.432l-15.138 14.746a.994.994 0 0 1 -.698.283z"/><path d="m45.74 72h-.068a1 1 0 0 1 -.862-.632l-7.859-20a1 1 0 1 1 1.861-.732l7.088 18.037 3.129-5.57a1 1 0 0 1 1.177-.463l6.094 1.949-6.814-17.289a1 1 0 0 1 1.862-.733l7.58 19.255a1 1 0 0 1 -1.236 1.319l-7.318-2.342-3.762 6.7a1 1 0 0 1 -.872.501z"/><path d="m28.26 72a1 1 0 0 1 -.872-.51l-3.762-6.7-7.318 2.342a1 1 0 0 1 -1.236-1.319l7.58-19.255a1 1 0 0 1 1.862.733l-6.814 17.298 6.089-1.949a1 1 0 0 1 1.177.463l3.129 5.57 7.088-18.036a1 1 0 1 1 1.861.732l-7.859 20a1 1 0 0 1 -.862.632z"/></svg>