<svg height="512pt" viewBox="0 0 512 512.00038" width="512pt" xmlns="http://www.w3.org/2000/svg"><path d="m157.699219 67.066406c12.890625-33.3125 42.109375-57.609375 77.0625-64.714844-14.050781-3.253906-28.976563-3.234374-43.648438.699219-27.980469 7.5-50.449219 28.300781-60.628906 55.007813-10.941406-2.109375-22.148437-1.773438-33.03125 1.140625-35.421875 9.492187-58.125 42.949219-55.371094 78.25-31.609375 15.023437-49.0625 52.65625-39.441406 88.554687 4.21875 15.746094 11.914063 28.105469 24.746094 38.050782-6.152344 15.03125-7.324219 31.671874-3.09375 47.402343 6.34375 23.746094 25.054687 42.65625 48.125 50.917969 12.378906 30.835938 29.371093 59.441406 50.550781 85.09375 20.738281 25.125 47.710938 44.421875 77.75 54.523438-39.558594-48.339844-66.058594-107.800782-75.800781-169.703126-21.679688-19.746093-34.277344-47.738281-34.277344-77.285156 0-15.511718 3.589844-30.964844 10.3125-45-6.722656-14.03125-10.3125-29.484375-10.3125-45 0-43.972656 27.273437-82.542968 67.058594-97.9375zm0 0"/><path d="m451.476562 95.234375c3.011719-51.671875-39.222656-95.2265625-90.839843-95.2265625-28.976563 0-56.058594 14.2812495-72.789063 37.4374995-10.046875-4.90625-20.945312-7.4375-32.210937-7.4375-36.664063 0-67.265625 26.4375-73.738281 61.257813-34.816407 6.472656-61.257813 37.074219-61.257813 73.738281 0 16.304688 5.449219 32.066406 15.277344 45-9.828125 12.933594-15.277344 28.695313-15.277344 45 0 24.5625 12.214844 47.414063 32.34375 61.359375 13.148437 108.625 85.550781 195.636719 102.652344 195.636719 3.585937 0 7.011719-.730469 10.5-1.191406-33.332031-152.5625-65.515625-204.277344-41.367188-281.941406l-13.765625-60.535157c-1.832031-8.074219 3.238282-16.113281 11.308594-17.960937 7.96875-1.84375 16.113281 3.238281 17.960938 11.308594l5.636718 24.796874c42.972656-58.769531 101.054688-56.785156 126.09375-66.015624 8.027344-2.050782 16.171875 2.871093 18.179688 10.910156 2.019531 8.027344-2.871094 16.171875-10.914063 18.179687l-30.046875 7.507813 35.277344 25.847656c6.679688 4.890625 8.128906 14.28125 3.238281 20.960938-4.933593 6.722656-14.347656 8.109374-20.960937 3.238281l-52.921875-38.773438c-30.789063 14.40625-54.019531 41.75-62.476563 75.523438-3.582031 14.359375-5.101562 29.160156-4.863281 43.9375l32.414063-16.207031c7.425781-3.691407 16.40625-.71875 20.125 6.707031 3.707031 7.414062.703124 16.421875-6.707032 20.128906l-42.1875 21.09375c.457032 2.207031.683594 4.457031 1.230469 6.648437l43.316406 174.285157c9.152344-5.148438 17.511719-11.796875 24.195313-20.386719 15.308594-19.671875 20.554687-45.808594 14.429687-69.917969-7.902343-31.015625 2.558594-58.390625 23.175781-75.292969 16.464844-13.476562 37.878907-18.777343 58.679688-14.648437l48.503906 9.507813c7.984375 1.699218 15.761719-3.441407 17.578125-11.394532 3.3125-14.589844 5.230469-33.914062-9.402343-53.863281-1.714844-2.34375-3.589844-4.554687-5.597657-6.621094 27.171875-15.527343 45.367188-44.734375 45.367188-77.824219 0-38.707031-24.582031-72.335937-60.160157-84.773437zm0 0"/></svg>