<svg xmlns="http://www.w3.org/2000/svg" viewBox="0 0 400 300" width="406" height="306" class="illustration"><g id="_127_user_avatar_flatline" data-name="#127_user_avatar_flatline"><path d="M172.71,160.84A70.93,70.93,0,0,1,125,187.2a71.23,71.23,0,0,1-15.63,0A70.87,70.87,0,0,1,61.6,160.85,115.55,115.55,0,0,1,94,144.9a78,78,0,0,1,46.41,0A116,116,0,0,1,172.71,160.84Z" fill="#68e1fd"></path><path d="M132,149.85l-7,37.35c-.58.07-1.16.12-1.74.16q-3,.27-6.08.27a67.62,67.62,0,0,1-6.86-.34c-.32,0-.63,0-1-.09l-7.78-37.35C108.85,147.68,124.67,147.68,132,149.85Z" fill="#231f20"></path><ellipse cx="117.15" cy="96.77" rx="27.66" ry="31.7" fill="#fff"></ellipse><path d="M117.15,129C101.61,129,89,114.54,89,96.77c0-18.86,2-32.21,28.17-32.21s28.17,13.35,28.17,32.21C145.32,114.54,132.68,129,117.15,129Zm0-63.4C91.9,65.59,90,77.94,90,96.77,90,114,102.18,128,117.15,128s27.14-14,27.14-31.19C144.29,77.94,142.4,65.59,117.15,65.59Z" fill="#231f20"></path><path d="M134.61,107.67c1.35-8.44,15.36-10.52,14.67-.57a14.65,14.65,0,0,1-3.74,9.34c-2.4,2.44-6.27,3.6-9.39,2.2" fill="#fff"></path><path d="M139.07,119.76a7.57,7.57,0,0,1-3.13-.65.51.51,0,1,1,.42-.94c2.76,1.24,6.39.38,8.82-2.09,2.63-2.68,3.4-6.39,3.59-9,.24-3.44-1.44-5.7-4.49-6-3.75-.43-8.44,2.23-9.16,6.74a.53.53,0,0,1-.59.43.51.51,0,0,1-.43-.6c.81-5.08,6.08-8.08,10.3-7.59,2.82.32,5.73,2.37,5.39,7.14-.19,2.81-1,6.77-3.88,9.67A9.76,9.76,0,0,1,139.07,119.76Z" fill="#231f20"></path><path d="M99.69,107.67C98.34,99.23,84.32,97.15,85,107.1a14.69,14.69,0,0,0,3.73,9.34c2.4,2.44,6.28,3.6,9.4,2.2" fill="#fff"></path><path d="M95.23,119.76a9.78,9.78,0,0,1-6.85-3c-2.85-2.9-3.68-6.86-3.88-9.67-.33-4.77,2.57-6.82,5.4-7.14,4.21-.49,9.49,2.51,10.3,7.59a.52.52,0,0,1-.43.6.53.53,0,0,1-.59-.43c-.72-4.51-5.4-7.17-9.16-6.74-3,.35-4.73,2.61-4.49,6,.19,2.63,1,6.34,3.59,9,2.43,2.47,6,3.33,8.82,2.09a.51.51,0,1,1,.42.94A7.57,7.57,0,0,1,95.23,119.76Z" fill="#231f20"></path><path d="M101.56,149.85s3.79,8.26,14.85,8.26A17.84,17.84,0,0,0,132,149.85l-1.48-32.44H103Z" fill="#fff"></path><path d="M116.41,158.63c-11.26,0-15.28-8.48-15.32-8.56a.52.52,0,0,1,0-.24l1.48-32.44a.51.51,0,0,1,.51-.49h27.45a.52.52,0,0,1,.52.49l1.47,32.44a.45.45,0,0,1-.06.27A18.53,18.53,0,0,1,116.41,158.63Zm-14.33-8.89c.5,1,4.3,7.85,14.33,7.85a17.51,17.51,0,0,0,15-7.87L130,117.93H103.53Z" fill="#231f20"></path><path d="M103,131.3a22.55,22.55,0,0,0,8.3,7.26c5.44,3,13.57,6.4,20.16,5.39l-1.08-13.72a62.06,62.06,0,0,1-14.56.09c-4.26-.37-8.65-.78-12.56-2.43C102.62,127.6,102.19,130,103,131.3Z" fill="#231f20"></path><path d="M129,144.63c-6.64,0-13.89-3.42-17.89-5.63a22.66,22.66,0,0,1-8.48-7.44,3.91,3.91,0,0,1-.06-3.88.8.8,0,0,1,1-.24c3.9,1.64,8.41,2,12.39,2.39a61.36,61.36,0,0,0,14.45-.09.51.51,0,0,1,.38.1.48.48,0,0,1,.18.35L132,143.91a.5.5,0,0,1-.42.53A17.17,17.17,0,0,1,129,144.63Zm-25.73-16.21a3.23,3.23,0,0,0,.2,2.61h0a21.58,21.58,0,0,0,8.11,7.1c4.33,2.39,12.51,6.22,19.39,5.39l-1-12.73a62.47,62.47,0,0,1-14.14,0C111.8,130.47,107.27,130.07,103.25,128.42Zm-.15-.07h0Z" fill="#231f20"></path><path d="M116,133.46h2.26a19.34,19.34,0,0,0,19.34-19.35V83.48s-6.72,1.93-20.47,1.93-20.48-1.93-20.48-1.93v30.63A19.35,19.35,0,0,0,116,133.46Z" fill="#fff"></path><path d="M137.62,83.48v30.63a19.34,19.34,0,0,1-19.34,19.35H116a19.35,19.35,0,0,1-19.35-19.35V83.48s6.73,1.93,20.48,1.93,20.47-1.93,20.47-1.93m-40.95-1a1.07,1.07,0,0,0-.62.2,1,1,0,0,0-.41.83v30.63A20.4,20.4,0,0,0,116,134.49h2.26a20.41,20.41,0,0,0,20.38-20.38V83.48a1.07,1.07,0,0,0-.41-.83,1.1,1.1,0,0,0-.63-.2.9.9,0,0,0-.28,0c-.07,0-6.79,1.89-20.19,1.89S97,82.51,97,82.49a1,1,0,0,0-.29,0Z" fill="#231f20"></path><path d="M117.46,114.31a22.89,22.89,0,0,1-2.78-.16,1.21,1.21,0,0,1-.92-.62c-1.43-2.38,2.34-12.52,3.11-14.53a.52.52,0,1,1,1,.37c-1.72,4.47-4.1,12.12-3.2,13.63a.21.21,0,0,0,.17.13,26.3,26.3,0,0,0,5.48,0,.52.52,0,0,1,.58.45.51.51,0,0,1-.45.57A26.08,26.08,0,0,1,117.46,114.31Z" fill="#231f20"></path><path d="M117.15,188.08a71.49,71.49,0,1,1,55.91-27A71.15,71.15,0,0,1,117.15,188.08Zm0-142A70.64,70.64,0,0,0,46.58,116.6a70.57,70.57,0,0,0,125.77,44,69.8,69.8,0,0,0,15.37-44A70.65,70.65,0,0,0,117.15,46Z" fill="#231f20"></path><polygon points="116.76 166.67 111.54 162.65 116.76 158.63 121.97 162.65 116.76 166.67" fill="#fff"></polygon><path d="M123.23,187.36q-3,.27-6.08.27a67.62,67.62,0,0,1-6.86-.34l4.71-22,0-.26h3.41l.05.27Z" fill="#fff"></path><path d="M150.84,179.51h-.07a.51.51,0,0,1-.44-.58l2.45-18.47a.53.53,0,0,1,.58-.45.52.52,0,0,1,.45.58l-2.46,18.48A.51.51,0,0,1,150.84,179.51Z" fill="#231f20"></path><path d="M83.46,179.51a.52.52,0,0,1-.51-.45L80.5,160.58a.52.52,0,0,1,.44-.58.53.53,0,0,1,.58.45L84,178.92a.52.52,0,0,1-.45.58Z" fill="#231f20"></path><path d="M310.51,96.77c0,17.51,43.37,86.08-27.66,86.08s-27.66-68.57-27.66-86.08,1.16-31.7,27.66-31.7S310.51,79.27,310.51,96.77Z" fill="#fff"></path><path d="M282.85,183.36c-17.77,0-29.94-4.38-36.16-13C236.2,155.76,244.16,132,250,114.63c2.52-7.53,4.7-14,4.7-17.86,0-18.86,2-32.21,28.17-32.21S311,77.91,311,96.77c0,3.83,2.17,10.33,4.7,17.86,5.81,17.36,13.77,41.13,3.28,55.71C312.79,179,300.63,183.36,282.85,183.36Zm0-117.77c-25.25,0-27.14,12.35-27.14,31.18,0,4-2.2,10.57-4.75,18.19-5.75,17.15-13.61,40.63-3.43,54.78,6,8.35,17.9,12.59,35.32,12.59s29.31-4.24,35.32-12.59c10.19-14.15,2.32-37.63-3.42-54.78-2.55-7.62-4.76-14.19-4.76-18.19C310,77.94,308.1,65.59,282.85,65.59Z" fill="#231f20"></path><path d="M338.41,160.84a70.88,70.88,0,0,1-47.74,26.36,71.23,71.23,0,0,1-15.63,0,70.89,70.89,0,0,1-47.74-26.35,115.55,115.55,0,0,1,32.35-15.95,78,78,0,0,1,46.41,0A116,116,0,0,1,338.41,160.84Z" fill="#68e1fd"></path><path d="M270,142s-14.82,3.25-14.58,4.26S271.83,179,272.77,179s10.08-5.55,10.08-5.55Z" fill="#fff"></path><path d="M272.77,179.51c-.44,0-.94,0-9.4-16.26-3.43-6.58-8.31-16.17-8.47-16.86a.74.74,0,0,1,.34-.76c1.1-.87,14.27-4.43,15-4.08a.49.49,0,0,1,.24.27l12.88,31.43a.5.5,0,0,1-.21.63C280.33,175.58,273.75,179.51,272.77,179.51ZM256,146.36c1.26,3,15,29.79,16.93,32.08,1-.35,5.32-2.81,9.3-5.21l-12.55-30.64C267.43,143,257.47,145.4,256,146.36Z" fill="#231f20"></path><path d="M295.34,142s14.81,3.25,14.57,4.26S293.48,179,292.54,179s-10.08-5.55-10.08-5.55Z" fill="#fff"></path><path d="M292.54,179.51c-1,0-7.56-3.93-10.35-5.63a.52.52,0,0,1-.21-.63l12.88-31.43a.53.53,0,0,1,.24-.27c.71-.36,13.87,3.21,15,4.08a.73.73,0,0,1,.33.76c-.16.69-5,10.28-8.46,16.86C293.48,179.51,293,179.51,292.54,179.51Zm-9.43-6.28a101.33,101.33,0,0,0,9.29,5.2c1.91-2.31,15.64-29,16.93-32.07-1.5-1-11.45-3.32-13.67-3.77Z" fill="#231f20"></path><path d="M297.66,149.85l-14.81,23.59-15.59-23.59C274.56,147.68,290.37,147.68,297.66,149.85Z" fill="#231f20"></path><path d="M300.31,107.67c1.35-8.44,15.37-10.52,14.67-.57a14.64,14.64,0,0,1-3.73,9.34c-2.4,2.44-6.27,3.6-9.4,2.2" fill="#fff"></path><path d="M304.77,119.76a7.6,7.6,0,0,1-3.13-.65.51.51,0,1,1,.42-.94c2.77,1.24,6.39.38,8.82-2.09,2.63-2.68,3.41-6.39,3.59-9,.24-3.44-1.44-5.7-4.49-6-3.75-.43-8.44,2.23-9.16,6.74a.52.52,0,1,1-1-.17c.82-5.08,6.08-8.08,10.3-7.59,2.83.32,5.73,2.37,5.4,7.14-.2,2.81-1,6.77-3.88,9.67A9.78,9.78,0,0,1,304.77,119.76Z" fill="#231f20"></path><path d="M265.39,107.67C264,99.23,250,97.15,250.72,107.1a14.7,14.7,0,0,0,3.74,9.34c2.4,2.44,6.27,3.6,9.4,2.2" fill="#fff"></path><path d="M260.93,119.76a9.76,9.76,0,0,1-6.84-3c-2.86-2.9-3.69-6.86-3.88-9.67-.34-4.77,2.57-6.82,5.4-7.14,4.21-.49,9.48,2.51,10.29,7.59a.51.51,0,0,1-.42.6.54.54,0,0,1-.6-.43c-.72-4.51-5.4-7.17-9.16-6.74-3.05.35-4.72,2.61-4.48,6,.18,2.63.95,6.34,3.58,9,2.43,2.47,6.06,3.33,8.82,2.09a.52.52,0,1,1,.43.94A7.65,7.65,0,0,1,260.93,119.76Z" fill="#231f20"></path><path d="M267.26,149.85s3.79,8.26,14.86,8.26c8.82,0,15.54-8.26,15.54-8.26l-1.48-32.44H268.74Z" fill="#fff"></path><path d="M282.12,158.63c-11.27,0-15.29-8.48-15.33-8.56a.69.69,0,0,1-.05-.24l1.48-32.44a.52.52,0,0,1,.52-.49h27.44a.51.51,0,0,1,.52.49l1.48,32.44a.57.57,0,0,1-.12.35C297.78,150.52,291.08,158.63,282.12,158.63Zm-14.34-8.89c.5,1,4.31,7.85,14.34,7.85,7.83,0,14.07-6.82,15-7.92l-1.45-31.74H269.23Z" fill="#231f20"></path><path d="M268.74,131.3a22.44,22.44,0,0,0,8.29,7.26c5.44,3,13.57,6.4,20.17,5.39l-1.09-13.72a62.05,62.05,0,0,1-14.56.09c-4.26-.37-8.65-.78-12.55-2.43C268.33,127.6,267.9,130,268.74,131.3Z" fill="#231f20"></path><path d="M294.68,144.63c-6.64,0-13.88-3.42-17.89-5.63a22.66,22.66,0,0,1-8.48-7.44,3.9,3.9,0,0,1-.05-3.88.79.79,0,0,1,.94-.24c3.9,1.64,8.42,2,12.4,2.39a61.28,61.28,0,0,0,14.44-.09.51.51,0,0,1,.38.1.49.49,0,0,1,.19.35l1.08,13.72a.49.49,0,0,1-.42.53A17.07,17.07,0,0,1,294.68,144.63ZM269,128.42a3.24,3.24,0,0,0,.21,2.61h0a21.58,21.58,0,0,0,8.11,7.1c4.33,2.39,12.51,6.22,19.39,5.39l-1-12.73a62.56,62.56,0,0,1-14.15,0C277.51,130.47,273,130.07,269,128.42Zm-.15-.07h0Z" fill="#231f20"></path><path d="M283.16,114.31a22.62,22.62,0,0,1-2.77-.16,1.21,1.21,0,0,1-.93-.62C278,111.15,281.81,101,282.58,99a.51.51,0,0,1,.66-.3.52.52,0,0,1,.3.67c-1.71,4.47-4.1,12.12-3.2,13.63.07.11.12.12.17.13a26.44,26.44,0,0,0,5.49,0,.51.51,0,0,1,.13,1A26.37,26.37,0,0,1,283.16,114.31Z" fill="#231f20"></path><path d="M303.33,91.86v22.26A19.34,19.34,0,0,1,284,133.46h-2.25a19.35,19.35,0,0,1-19.36-19.34V93l12.18-1,1.4-9.66L279,93.26l8.64-1.14c.88-3.87,0-12.21-.13-12.58l6.23,11.69Z" fill="#fff"></path><path d="M284,134h-2.25a19.88,19.88,0,0,1-19.87-19.85V93a.51.51,0,0,1,.47-.51l11.77-1,1.34-9.25a.5.5,0,0,1,.48-.44.51.51,0,0,1,.53.37l2.92,10.5,7.84-1c.73-3.89-.12-11.6-.2-12a.52.52,0,0,1,1-.36l6.09,11.44,9.3.62a.51.51,0,0,1,.48.51v22.26A19.88,19.88,0,0,1,284,134ZM262.89,93.48v20.64a18.85,18.85,0,0,0,18.84,18.82H284a18.85,18.85,0,0,0,18.83-18.82V92.34l-9.11-.6a.52.52,0,0,1-.42-.27l-5-9.37c.24,2.92.45,7.5-.15,10.13a.52.52,0,0,1-.43.4l-8.64,1.14a.52.52,0,0,1-.57-.37l-2.39-8.57-1.05,7.23a.51.51,0,0,1-.47.44Z" fill="#231f20"></path><path d="M282.85,188.08a71.49,71.49,0,1,1,55.92-27A71.12,71.12,0,0,1,282.85,188.08Zm0-142a70.65,70.65,0,0,0-70.57,70.57,70.57,70.57,0,0,0,141.14,0A70.64,70.64,0,0,0,282.85,46Z" fill="#231f20"></path><path d="M316.54,179.51h-.06a.51.51,0,0,1-.45-.58l2.46-18.47a.53.53,0,0,1,.58-.45.52.52,0,0,1,.44.58l-2.45,18.48A.53.53,0,0,1,316.54,179.51Z" fill="#231f20"></path><path d="M249.17,179.51a.51.51,0,0,1-.51-.45l-2.46-18.48a.52.52,0,0,1,.45-.58.53.53,0,0,1,.58.45l2.45,18.47a.51.51,0,0,1-.44.58Z" fill="#231f20"></path><path d="M113.43,252.61A22.73,22.73,0,1,1,129.51,246h0A22.67,22.67,0,0,1,113.43,252.61Zm0-42.45a19.73,19.73,0,1,0,14,5.77A19.66,19.66,0,0,0,113.43,210.16Zm15,34.74h0Z" fill="#d1d3d4"></path><path d="M128.45,216.37a1.51,1.51,0,0,1-1.06-.44,1.49,1.49,0,0,1,0-2.12l5.92-5.93a1.51,1.51,0,0,1,2.12,0,1.49,1.49,0,0,1,0,2.12l-5.92,5.93A1.51,1.51,0,0,1,128.45,216.37Z" fill="#d1d3d4"></path><path d="M135.68,216a1.5,1.5,0,0,1-1.49-1.37l-.44-5L128.6,209a1.5,1.5,0,1,1,.3-3l6.38.65a1.5,1.5,0,0,1,1.34,1.36l.56,6.28a1.5,1.5,0,0,1-1.37,1.62Z" fill="#d1d3d4"></path><path d="M282.86,247.55a22.74,22.74,0,1,1,22.73-22.74A22.76,22.76,0,0,1,282.86,247.55Zm0-42.47a19.74,19.74,0,1,0,19.73,19.73A19.75,19.75,0,0,0,282.86,205.08Z" fill="#d1d3d4"></path><path d="M282.86,259.57a1.5,1.5,0,0,1-1.5-1.5v-12a1.5,1.5,0,0,1,3,0v12A1.5,1.5,0,0,1,282.86,259.57Z" fill="#d1d3d4"></path><path d="M287.84,255.3h-10a1.5,1.5,0,0,1,0-3h10a1.5,1.5,0,0,1,0,3Z" fill="#d1d3d4"></path></g></svg>