<svg height="482pt" viewBox="-68 0 482 482.23649" width="482pt" xmlns="http://www.w3.org/2000/svg"><path d="m337.28125 397.363281-38.570312-.390625-12.382813-24.816406c-.050781-.109375-.109375-.214844-.167969-.320312-3.992187-7.140626-5.054687-15.554688-2.957031-23.464844.046875-.1875.089844-.378906.125-.566406l10.640625-57.09375c.011719-.070313.023438-.144532.035156-.21875 5.625-35.867188 2.164063-72.574219-10.066406-106.757813l-63.988281-178.433594c-1.269531-3.550781-4.847657-5.726562-8.582031-5.2304685l-11.957032 1.5898435c-10.757812 1.425782-20.445312 7.25-26.75 16.082032-6.308594-8.832032-15.996094-14.65625-26.753906-16.082032l-11.953125-1.5898435c-3.738281-.4960935-7.3125 1.6796875-8.585937 5.2304685l-63.988282 178.433594c-12.230468 34.1875-15.691406 70.890625-10.066406 106.761719.011719.074218.023438.144531.039062.21875l10.636719 57.089844c.035157.191406.078125.382812.128907.570312 2.09375 7.90625 1.035156 16.320312-2.957032 23.460938-.058594.101562-.117187.210937-.171875.320312l-12.378906 24.816406-38.574219.390625c-4.417968.046875-7.9648435 3.667969-7.917968 8.089844l.765624 68.988281c.058594 4.359375 3.640626 7.851563 8 7.792969h.074219l163.644531-1.554687c.015626 0 .035157.054687.054688.054687.019531-.003906.035156-.085937.054688-.085937l163.648437 1.585937h.082031c4.359375.058594 7.941406-3.433594 8-7.792969l.765625-69.046875c.019531-2.117187-.804687-4.15625-2.289062-5.664062-1.488281-1.507813-3.511719-2.359375-5.628907-2.367188zm-135.589844-379.84375 5.464844-.738281 61.761719 172.355469c11.308593 31.621093 14.515625 65.578125 9.320312 98.757812l-10.578125 56.703125c-3.039062 11.757813-1.453125 24.234375 4.433594 34.855469l8.574219 17.335937-100.007813-1.019531v-185.535156h.066406l.085938-15.824219c.90625-17.679687 16.085938-33.199218 34.660156-36.558594l-1.0625 126.21875c-.054687 4.445313 3.496094 8.097657 7.941406 8.164063h.070313c4.421875-.074219 7.972656-3.664063 8-8.085937l1.144531-134.945313c.039063-4.417969-3.496094-8.039063-7.914062-8.105469-14.890625-.019531-29.273438 5.449219-40.386719 15.363282-.800781.707031-1.394531 1.425781-2.140625 2.160156l.535156-117.613282v-.128906c-.164062-11.71875 8.421875-21.730468 20.03125-23.359375zm-124.023437 327.078125-10.566407-56.707031c-5.1875-33.183594-1.976562-67.136719 9.339844-98.757813l61.804688-172.351562 5.382812.738281c11.609375 1.628907 20.191406 11.640625 20.03125 23.359375v.128906l.53125 117.605469c-.746094-.738281-1.429687-1.464843-2.222656-2.171875-11.101562-9.914062-25.464844-15.390625-40.347656-15.382812-4.40625.050781-7.9375 3.664062-7.890625 8.066406l1.15625 135.023438c.03125 4.421874 3.585937 8.015624 8.011719 8.085937h.066406c4.453125-.097656 7.996094-3.769531 7.933594-8.222656l-1.070313-126.199219c18.574219 3.355469 33.808594 18.714844 34.710937 36.324219l.121094 15.621093v186.011719l-100.011718 1.019531 8.613281-17.335937c5.875-10.625 7.453125-23.101563 4.40625-34.855469zm86.992187 120.28125-147.800781 1.511719-.554687-53.109375 148.355468-1.511719zm163.796875 1.511719-147.796875-1.511719v-53.109375l148.347656 1.511719zm0 0"/></svg>